<?xml version="1.0" standalone="no"?>
<svg viewBox="0 0 200 200" xmlns="http://www.w3.org/2000/svg">
  <path fill="rgba(252,184,48, 0.15)" d="M47.2,-67.6C59.8,-55.9,67.6,-40.2,72.1,-24C76.5,-7.8,77.7,8.9,70.3,20.1C62.9,31.2,46.8,36.8,33.7,41.8C20.5,46.7,10.3,51.1,-0.2,51.4C-10.7,51.7,-21.5,48,-37.2,43.9C-52.9,39.8,-73.6,35.2,-82.4,23.2C-91.2,11.2,-88,-8.2,-77.8,-20.9C-67.6,-33.6,-50.4,-39.6,-36.2,-50.7C-22.1,-61.8,-11,-78.1,3.2,-82.4C17.3,-86.8,34.7,-79.2,47.2,-67.6Z" transform="translate(100 100)" />
</svg>
