<?xml version="1.0" standalone="no"?>
<svg viewBox="0 0 200 200" xmlns="http://www.w3.org/2000/svg">
  <path fill="#F8C36F" d="M35.4,-55.8C44.3,-42.4,48.6,-29.8,53,-17.1C57.3,-4.3,61.7,8.6,61,22.7C60.4,36.8,54.7,52.1,43.7,57C32.7,61.8,16.3,56.2,-0.5,56.9C-17.3,57.6,-34.7,64.6,-48.1,60.5C-61.5,56.4,-71.1,41.3,-73.1,25.9C-75.1,10.5,-69.6,-5.2,-64.6,-21.1C-59.6,-37.1,-55.1,-53.4,-44.4,-66.2C-33.8,-79.1,-16.9,-88.5,-1.8,-86C13.3,-83.6,26.6,-69.2,35.4,-55.8Z" transform="translate(100 100)" />
</svg>
