<svg xmlns="http://www.w3.org/2000/svg" width="282" height="291" viewBox="0 0 282 291" fill="none"><link xmlns="" type="text/css" rel="stylesheet" id="dark-mode-custom-link"/><link xmlns="" type="text/css" rel="stylesheet" id="dark-mode-general-link"/><style xmlns="" lang="en" type="text/css" id="dark-mode-custom-style"/><style xmlns="" lang="en" type="text/css" id="dark-mode-native-style"/><style xmlns="" lang="en" type="text/css" id="dark-mode-native-sheet"/>
<path d="M132.165 271.806L132.013 271.753L131.851 271.751C130.48 271.732 129.017 271.171 128.318 269.713L105.911 222.971L105.479 222.069L104.577 222.501L84.5926 232.082C77.9935 235.245 70.0293 232.465 66.8945 225.926L7.04061 101.067C3.90574 94.5274 6.72651 86.5777 13.3256 83.4142L172.558 7.08248C179.157 3.91905 187.122 6.69879 190.256 13.2383L250.11 138.097C253.245 144.637 250.424 152.586 243.825 155.75L161.953 194.997L161.577 195.177L161.441 195.57L135.745 269.303C135.745 269.304 135.744 269.305 135.744 269.306C135.488 270.022 134.681 271.066 133.645 271.562C133.013 271.865 132.703 271.994 132.165 271.806Z" stroke="#000" stroke-width="2"/>
<mask id="mask0" mask-type="alpha" maskUnits="userSpaceOnUse" x="0" y="114" width="255" height="162">
<rect y="114" width="255" height="162" fill="#C4C4C4"/>
</mask>
<g mask="url(#mask0)">
<path d="M132.165 271.806L132.013 271.753L131.851 271.751C130.48 271.732 129.017 271.171 128.318 269.713L105.911 222.971L105.479 222.069L104.577 222.501L84.5926 232.082C77.9935 235.245 70.0293 232.465 66.8945 225.926L7.04061 101.067C3.90574 94.5274 6.72651 86.5777 13.3256 83.4142L172.558 7.08248C179.157 3.91905 187.122 6.69879 190.256 13.2383L250.11 138.097C253.245 144.637 250.424 152.586 243.825 155.75L161.953 194.997L161.577 195.177L161.441 195.57L135.745 269.303C135.745 269.304 135.744 269.305 135.744 269.306C135.488 270.022 134.681 271.066 133.645 271.562C133.013 271.865 132.703 271.994 132.165 271.806Z" stroke="#000" stroke-width="2"/>
</g>
</svg>




