<svg id="eKaxlSgiVDZ1" xmlns="http://www.w3.org/2000/svg" xmlns:xlink="http://www.w3.org/1999/xlink" viewBox="0 0 600 600" shape-rendering="geometricPrecision" text-rendering="geometricPrecision"><path d="" fill="none" stroke="#3f5787" stroke-width="1.2"/><ellipse rx="177.321156" ry="111.872147" transform="translate(368.49315 261.035008)" fill="none" stroke-width="0"/><path d="M232.512793,247.509921c0-140.22516,291.992534-177.911949,291.992534,24.940611" transform="translate(0 0.000001)" fill="none" stroke="#f8c36f" stroke-width="8"/><path d="M227.901364,252.121352c9.83745,59.02471,47.422096,133.579118,107.867276,121.490078" transform="translate(4.611429-4.61143)" fill="none" stroke="#fff" stroke-width="8"/><path d="M524.505327,272.450533c.970795,55.431901-76.915943,94.884609-128.725566,100.456622" fill="none" stroke="#fbfbfb" stroke-width="8"/><path d="M336.132041,371.33986c19.989148,19.805451,28.603727,40.234644,57.426029,45.91526c9.106139,1.794738,17.51598,4.48897,26.93382,4.48897c3.74081,0,7.49698-.33868,11.22242,0c2.49602.22691,9.98793.74816,7.48162.74816-19.585785-2.38474-45.574045-32.45471-45.63786-51.15239" transform="translate(-.45054-2.33986)" fill="none" stroke="#fff" stroke-width="8"/></svg>
