<?xml version="1.0" encoding="UTF-8"?> <svg xmlns="http://www.w3.org/2000/svg" width="134" height="123" viewBox="0 0 134 123" fill="none"><path d="M30.4746 76.0176H34.7254C35.1728 76.0176 35.5457 75.7193 35.6948 75.2718C35.844 75.7193 36.1423 76.0176 36.6643 76.0176H40.9151C41.3625 76.0176 41.7354 75.7193 41.8845 75.2718C42.0337 75.7193 42.332 76.0176 42.854 76.0176H47.1048C47.5522 76.0176 47.9251 75.7193 48.0742 75.2718C48.2234 75.7193 48.5217 76.0176 49.0437 76.0176H53.2945C53.7419 76.0176 54.1148 75.7193 54.2639 75.2718C54.4131 75.7193 54.7114 76.0176 55.2334 76.0176H59.4842C59.9316 76.0176 60.3045 75.7193 60.4536 75.2718C60.5282 75.7193 60.9011 76.0176 61.4231 76.0176H65.6739C66.1213 76.0176 66.4942 75.7193 66.6433 75.2718C66.7925 75.7193 67.0908 76.0176 67.6128 76.0176H71.8636C72.3856 76.0176 72.7584 75.6447 72.833 75.1227C72.9076 75.6447 73.2805 76.0176 73.8025 76.0176H78.0532C78.5753 76.0176 78.9481 75.6447 79.0227 75.1227C79.0973 75.6447 79.4702 76.0176 79.9922 76.0176H84.243C84.765 76.0176 85.1378 75.6447 85.2124 75.1227C85.287 75.6447 85.6599 76.0176 86.1819 76.0176H90.4326C90.9547 76.0176 91.4021 75.5701 91.4021 75.0481C91.4021 74.5261 90.9547 74.0786 90.4326 74.0786H86.1819C85.6599 74.0786 85.287 74.4515 85.2124 74.9735C85.1378 74.4515 84.765 74.0786 84.243 74.0786H79.9922C79.4702 74.0786 79.0973 74.4515 79.0227 74.9735C78.9481 74.4515 78.5753 74.0786 78.0532 74.0786H73.8025C73.2805 74.0786 72.9076 74.4515 72.833 74.9735C72.7584 74.4515 72.3856 74.0786 71.8636 74.0786H67.6128C67.1653 74.0786 66.7925 74.3769 66.6433 74.8244C66.4942 74.3769 66.1959 74.0786 65.6739 74.0786H61.4231C60.9756 74.0786 60.6028 74.3769 60.4536 74.8244C60.379 74.3769 60.0062 74.0786 59.4842 74.0786H55.2334C54.7859 74.0786 54.4131 74.3769 54.2639 74.8244C54.1148 74.3769 53.8165 74.0786 53.2945 74.0786H49.0437C48.5962 74.0786 48.2234 74.3769 48.0742 74.8244C47.9251 74.3769 47.6268 74.0786 47.1048 74.0786H42.854C42.4065 74.0786 42.0337 74.3769 41.8845 74.8244C41.7354 74.3769 41.4371 74.0786 40.9151 74.0786H36.6643C36.2168 74.0786 35.844 74.3769 35.6948 74.8244C35.5457 74.3769 35.2474 74.0786 34.7254 74.0786H30.4746C29.9526 74.0786 29.5051 74.5261 29.5051 75.0481C29.5051 75.5701 29.9526 76.0176 30.4746 76.0176Z" fill="black"></path><path d="M30.4746 81.014H34.7254C35.1728 81.014 35.5457 80.7157 35.6948 80.2683C35.844 80.7157 36.1423 81.014 36.6643 81.014H40.9151C41.3625 81.014 41.7354 80.7157 41.8845 80.2683C42.0337 80.7157 42.332 81.014 42.854 81.014H47.1048C47.5522 81.014 47.9251 80.7157 48.0742 80.2683C48.2234 80.7157 48.5217 81.014 49.0437 81.014H53.2945C53.7419 81.014 54.1148 80.7157 54.2639 80.2683C54.4131 80.7157 54.7114 81.014 55.2334 81.014H59.4842C59.9316 81.014 60.3045 80.7157 60.4536 80.2683C60.5282 80.7157 60.9011 81.014 61.4231 81.014H65.6739C66.1213 81.014 66.4942 80.7157 66.6433 80.2683C66.7925 80.7157 67.0908 81.014 67.6128 81.014H71.8636C72.3856 81.014 72.7584 80.6411 72.833 80.1191C72.9076 80.6411 73.2805 81.014 73.8025 81.014H78.0532C78.5753 81.014 78.9481 80.6411 79.0227 80.1191C79.0973 80.6411 79.4702 81.014 79.9922 81.014H84.243C84.765 81.014 85.1378 80.6411 85.2124 80.1191C85.287 80.6411 85.6599 81.014 86.1819 81.014H90.4326C90.9547 81.014 91.4021 80.5666 91.4021 80.0445C91.4021 79.5225 90.9547 79.0751 90.4326 79.0751H86.1819C85.6599 79.0751 85.287 79.448 85.2124 79.97C85.1378 79.448 84.765 79.0751 84.243 79.0751H79.9922C79.4702 79.0751 79.0973 79.448 79.0227 79.97C78.9481 79.448 78.5753 79.0751 78.0532 79.0751H73.8025C73.2805 79.0751 72.9076 79.448 72.833 79.97C72.7584 79.448 72.3856 79.0751 71.8636 79.0751H67.6128C67.1653 79.0751 66.7925 79.3734 66.6433 79.8208C66.4942 79.3734 66.1959 79.0751 65.6739 79.0751H61.4231C60.9756 79.0751 60.6028 79.3734 60.4536 79.8208C60.379 79.3734 60.0062 79.0751 59.4842 79.0751H55.2334C54.7859 79.0751 54.4131 79.3734 54.2639 79.8208C54.1148 79.3734 53.8165 79.0751 53.2945 79.0751H49.0437C48.5962 79.0751 48.2234 79.3734 48.0742 79.8208C47.9251 79.3734 47.6268 79.0751 47.1048 79.0751H42.854C42.4065 79.0751 42.0337 79.3734 41.8845 79.8208C41.7354 79.3734 41.4371 79.0751 40.9151 79.0751H36.6643C36.2168 79.0751 35.844 79.3734 35.6948 79.8208C35.5457 79.3734 35.2474 79.0751 34.7254 79.0751H30.4746C29.9526 79.0751 29.5051 79.5225 29.5051 80.0445C29.5051 80.5666 29.9526 81.014 30.4746 81.014Z" fill="black"></path><path d="M30.4746 86.0105H34.7254C35.1728 86.0105 35.5457 85.7122 35.6948 85.2647C35.844 85.7122 36.1423 86.0105 36.6643 86.0105H40.9151C41.3625 86.0105 41.7354 85.7122 41.8845 85.2647C42.0337 85.7122 42.332 86.0105 42.854 86.0105H47.1048C47.5522 86.0105 47.9251 85.7122 48.0742 85.2647C48.2234 85.7122 48.5217 86.0105 49.0437 86.0105H53.2945C53.7419 86.0105 54.1148 85.7122 54.2639 85.2647C54.4131 85.7122 54.7114 86.0105 55.2334 86.0105H59.4842C59.9316 86.0105 60.3045 85.7122 60.4536 85.2647C60.5282 85.7122 60.9011 86.0105 61.4231 86.0105H65.6739C66.1213 86.0105 66.4942 85.7122 66.6433 85.2647C66.7925 85.7122 67.0908 86.0105 67.6128 86.0105H71.8636C72.3856 86.0105 72.7584 85.6376 72.833 85.1156C72.9076 85.6376 73.2805 86.0105 73.8025 86.0105H78.0532C78.5753 86.0105 78.9481 85.6376 79.0227 85.1156C79.0973 85.6376 79.4702 86.0105 79.9922 86.0105H84.243C84.765 86.0105 85.1378 85.6376 85.2124 85.1156C85.287 85.6376 85.6599 86.0105 86.1819 86.0105H90.4326C90.9547 86.0105 91.4021 85.563 91.4021 85.041C91.4021 84.519 90.9547 84.0715 90.4326 84.0715H86.1819C85.6599 84.0715 85.287 84.4444 85.2124 84.9664C85.1378 84.4444 84.765 84.0715 84.243 84.0715H79.9922C79.4702 84.0715 79.0973 84.4444 79.0227 84.9664C78.9481 84.4444 78.5753 84.0715 78.0532 84.0715H73.8025C73.2805 84.0715 72.9076 84.4444 72.833 84.9664C72.7584 84.4444 72.3856 84.0715 71.8636 84.0715H67.6128C67.1653 84.0715 66.7925 84.3698 66.6433 84.8173C66.4942 84.3698 66.1959 84.0715 65.6739 84.0715H61.4231C60.9756 84.0715 60.6028 84.3698 60.4536 84.8173C60.379 84.3698 60.0062 84.0715 59.4842 84.0715H55.2334C54.7859 84.0715 54.4131 84.3698 54.2639 84.8173C54.1148 84.3698 53.8165 84.0715 53.2945 84.0715H49.0437C48.5962 84.0715 48.2234 84.3698 48.0742 84.8173C47.9251 84.3698 47.6268 84.0715 47.1048 84.0715H42.854C42.4065 84.0715 42.0337 84.3698 41.8845 84.8173C41.7354 84.3698 41.4371 84.0715 40.9151 84.0715H36.6643C36.2168 84.0715 35.844 84.3698 35.6948 84.8173C35.5457 84.3698 35.2474 84.0715 34.7254 84.0715H30.4746C29.9526 84.0715 29.5051 84.519 29.5051 85.041C29.5051 85.563 29.9526 86.0105 30.4746 86.0105Z" fill="black"></path><path d="M30.4746 90.9325H34.7254C35.1728 90.9325 35.5457 90.6342 35.6948 90.1867C35.844 90.6342 36.1423 90.9325 36.6643 90.9325H40.9151C41.3625 90.9325 41.7354 90.6342 41.8845 90.1867C42.0337 90.6342 42.332 90.9325 42.854 90.9325H47.1048C47.5522 90.9325 47.9251 90.6342 48.0742 90.1867C48.2234 90.6342 48.5217 90.9325 49.0437 90.9325H53.2945C53.7419 90.9325 54.1148 90.6342 54.2639 90.1867C54.4131 90.6342 54.7114 90.9325 55.2334 90.9325H59.4842C59.9316 90.9325 60.3045 90.6342 60.4536 90.1867C60.5282 90.6342 60.9011 90.9325 61.4231 90.9325H65.6739C66.1213 90.9325 66.4942 90.6342 66.6433 90.1867C66.7925 90.6342 67.0908 90.9325 67.6128 90.9325H71.8636C72.3856 90.9325 72.7584 90.5596 72.833 90.0376C72.9076 90.5596 73.2805 90.9325 73.8025 90.9325H78.0532C78.5753 90.9325 78.9481 90.5596 79.0227 90.0376C79.0973 90.5596 79.4702 90.9325 79.9922 90.9325H84.243C84.765 90.9325 85.1378 90.5596 85.2124 90.0376C85.287 90.5596 85.6599 90.9325 86.1819 90.9325H90.4326C90.9547 90.9325 91.4021 90.485 91.4021 89.963C91.4021 89.441 90.9547 88.9935 90.4326 88.9935H86.1819C85.6599 88.9935 85.287 89.3664 85.2124 89.8884C85.1378 89.3664 84.765 88.9935 84.243 88.9935H79.9922C79.4702 88.9935 79.0973 89.3664 79.0227 89.8884C78.9481 89.3664 78.5753 88.9935 78.0532 88.9935H73.8025C73.2805 88.9935 72.9076 89.3664 72.833 89.8884C72.7584 89.3664 72.3856 88.9935 71.8636 88.9935H67.6128C67.1653 88.9935 66.7925 89.2918 66.6433 89.7393C66.4942 89.2918 66.1959 88.9935 65.6739 88.9935H61.4231C60.9756 88.9935 60.6028 89.2918 60.4536 89.7393C60.379 89.2918 60.0062 88.9935 59.4842 88.9935H55.2334C54.7859 88.9935 54.4131 89.2918 54.2639 89.7393C54.1148 89.2918 53.8165 88.9935 53.2945 88.9935H49.0437C48.5962 88.9935 48.2234 89.2918 48.0742 89.7393C47.9251 89.2918 47.6268 88.9935 47.1048 88.9935H42.854C42.4065 88.9935 42.0337 89.2918 41.8845 89.7393C41.7354 89.2918 41.4371 88.9935 40.9151 88.9935H36.6643C36.2168 88.9935 35.844 89.2918 35.6948 89.7393C35.5457 89.2918 35.2474 88.9935 34.7254 88.9935H30.4746C29.9526 88.9935 29.5051 89.441 29.5051 89.963C29.5051 90.485 29.9526 90.9325 30.4746 90.9325Z" fill="black"></path><path d="M30.4746 95.9289H34.7254C35.1728 95.9289 35.5457 95.6306 35.6948 95.1832C35.844 95.6306 36.1423 95.9289 36.6643 95.9289H40.9151C41.3625 95.9289 41.7354 95.6306 41.8845 95.1832C42.0337 95.6306 42.332 95.9289 42.854 95.9289H47.1048C47.5522 95.9289 47.8505 95.7052 47.9997 95.3323C48.1488 95.7052 48.5217 95.9289 48.8945 95.9289H71.7144C72.2364 95.9289 72.6093 95.5561 72.6839 95.034C72.7584 95.5561 73.1313 95.9289 73.6533 95.9289H77.9041C78.4261 95.9289 78.799 95.5561 78.8736 95.034C78.9481 95.5561 79.321 95.9289 79.843 95.9289H84.0938C84.6158 95.9289 84.9887 95.5561 85.0633 95.034C85.1378 95.5561 85.5107 95.9289 86.0327 95.9289H90.2835C90.8055 95.9289 91.253 95.4815 91.253 94.9595C91.253 94.4374 90.8055 93.99 90.2835 93.99H86.0327C85.5107 93.99 85.1378 94.3629 85.0633 94.8849C84.9887 94.3629 84.6158 93.99 84.0938 93.99H79.843C79.321 93.99 78.9481 94.3629 78.8736 94.8849C78.799 94.3629 78.4261 93.99 77.9041 93.99H73.6533C73.1313 93.99 72.7584 94.3629 72.6839 94.8849C72.6093 94.3629 72.2364 93.99 71.7144 93.99H48.9691C48.5217 93.99 48.2234 94.2137 48.0742 94.5866C47.9251 94.2137 47.5522 93.99 47.1793 93.99H42.9286C42.4811 93.99 42.1083 94.2883 41.9591 94.7357C41.81 94.2883 41.5117 93.99 40.9896 93.99H36.6643C36.2168 93.99 35.844 94.2883 35.6948 94.7357C35.5457 94.2883 35.2474 93.99 34.7254 93.99H30.4746C29.9526 93.99 29.5051 94.4374 29.5051 94.9595C29.5051 95.4815 29.9526 95.9289 30.4746 95.9289Z" fill="black"></path><path d="M106.615 35.4488L68.3584 21.0559C68.1347 20.9814 67.8364 20.9814 67.6127 21.0559L29.6542 36.12C29.2813 36.2692 29.0576 36.642 29.0576 37.0895C29.0576 37.5369 29.2813 37.8352 29.7287 37.9844L46.9555 44.4724C46.9555 46.0385 46.9555 46.5605 47.0301 47.1571C47.0301 47.5299 47.0301 47.9774 47.0301 48.7231H37.3354H35.6947H31.444C29.0576 48.7231 27.1186 50.6621 27.1186 53.0485C27.1186 55.4349 29.0576 57.3738 31.444 57.3738H36.3659C36.4405 57.3738 36.515 57.4484 36.5896 57.4484H39.9455C41.7353 57.4484 43.1522 58.8653 43.1522 60.6551C43.1522 62.4449 41.7353 63.8618 39.9455 63.8618C37.0371 63.8618 34.6507 66.0245 34.2778 68.8583H28.0881C26.9695 68.8583 26 69.8278 26 70.9464V98.9119C26 100.031 26.9695 101 28.0881 101H92.5952C93.7138 101 94.6833 100.031 94.6833 98.9119V70.8718C94.6833 69.7532 93.7138 68.7837 92.5952 68.7837H36.2913C36.5896 67.0685 38.1557 65.7262 39.9455 65.7262C42.7793 65.7262 45.0911 63.4144 45.0911 60.5805C45.0911 57.7467 42.7793 55.4349 39.9455 55.4349H39.3489C39.2743 55.4349 39.1997 55.3603 39.1251 55.3603H31.444C30.1762 55.3603 29.1321 54.3162 29.1321 53.0485C29.1321 51.7807 30.1762 50.7367 31.444 50.7367H35.6947H37.3354H47.1046C47.4775 54.4654 50.013 57.0009 56.2773 59.8348C60.5281 61.7737 64.3314 63.1161 67.9856 63.9364C68.1347 64.011 68.2838 64.0855 68.5076 64.0855C68.5821 64.0855 68.6567 64.0855 68.7313 64.0855C72.3855 63.2652 76.4125 61.7737 80.6633 59.6856C87.2258 56.4789 89.6868 53.7942 89.6868 49.618C89.6868 47.9028 89.6868 47.3808 89.6122 46.8588C89.6122 46.3368 89.6122 45.8147 89.5376 44.1741L91.2529 43.5029L91.3274 51.3333C90.2088 51.8553 89.3885 52.9739 89.3885 54.2417V58.045C89.3885 58.567 89.8359 59.0144 90.358 59.0144H94.7579C95.2799 59.0144 95.7273 58.567 95.7273 58.045V54.2417C95.7273 52.7502 94.6833 51.4824 93.2664 51.1841L93.1918 42.6826L106.69 37.3132C107.063 37.1641 107.286 36.7912 107.286 36.3437C107.286 35.9709 106.988 35.598 106.615 35.4488ZM92.6698 70.8718V98.8373C92.6698 98.9119 92.5952 98.9119 92.5952 98.9119H28.0881C28.0135 98.9119 28.0135 98.8373 28.0135 98.8373V70.8718C28.0135 70.7972 28.0881 70.7973 28.0881 70.7973H92.5952C92.6698 70.7973 92.6698 70.7972 92.6698 70.8718ZM93.7138 54.2417V57.0755H91.3274V54.2417C91.3274 53.5705 91.8495 53.0485 92.5206 53.0485C93.1918 53.0485 93.7138 53.5705 93.7138 54.2417ZM48.969 49.9163C48.969 48.2011 48.8944 47.6045 48.8944 47.0825C48.8944 46.635 48.8944 46.1876 48.8944 45.2181L67.0907 52.079L67.3144 61.6991C64.1077 60.9534 60.7518 59.6856 56.9485 57.9704C50.3859 54.9128 49.0436 52.6756 48.969 49.9163ZM87.5241 46.8588C87.5241 47.3808 87.5241 47.9028 87.5987 49.5435C87.5987 52.3773 86.3309 54.6145 79.6938 57.8213C76.0396 59.611 72.5346 60.9534 69.4025 61.7737L69.1787 52.1536L87.5241 44.9198C87.5241 45.9639 87.5241 46.4113 87.5241 46.8588ZM91.7749 41.0419L72.9075 33.9574C73.1312 33.5845 73.2804 33.2116 73.2804 32.7642C73.2804 30.9744 71.1177 29.7066 68.1347 29.7066C65.1517 29.7066 62.989 31.0489 62.989 32.8387C62.989 34.6285 65.1517 35.8963 68.1347 35.8963C69.2533 35.8963 70.2228 35.7471 71.0431 35.3743L89.0156 42.086L68.6567 50.2146C68.5076 50.1401 68.2838 50.0655 68.0601 50.0655C67.911 50.0655 67.7618 50.1401 67.6127 50.1401L32.7863 37.0149L67.9856 23.0694L103.483 36.4183L91.7749 41.0419ZM68.1347 33.9574C66.0466 33.9574 64.928 33.2116 64.928 32.8387C64.928 32.5404 66.0466 31.7201 68.1347 31.7201C70.2228 31.7201 71.3414 32.4659 71.3414 32.8387C71.3414 33.137 70.2228 33.9574 68.1347 33.9574Z" fill="black"></path></svg> 