<svg height="49" viewBox="0 0 49 49" width="49" xmlns="http://www.w3.org/2000/svg"><g fill="none" fill-rule="evenodd"><g stroke="#feb538" transform="translate(10 10)"><rect height="21" rx="2" stroke-width="2" width="30" x="4" y="1"/><path d="m19.5 23.5h-1v3h-3v1h7v-1h-3z" fill="#feb538"/><g fill="#fff" stroke-width="2"><rect height="14" rx="2" width="8" x="28" y="14"/><path d="m32 25h1v1h-1z"/><rect height="18" rx="2" width="12" x="1" y="10"/><path d="m7 25h1v1h-1z"/></g></g><path d="m47 5h1c.5522847 0 1 .44771525 1 1s-.4477153 1-1 1h-1v1c0 .55228475-.4477153 1-1 1s-1-.44771525-1-1v-1h-1c-.5522847 0-1-.44771525-1-1s.4477153-1 1-1h1v-1c0-.55228475.4477153-1 1-1s1 .44771525 1 1zm-43 31h1c.55228475 0 1 .4477153 1 1s-.44771525 1-1 1h-1v1c0 .5522847-.44771525 1-1 1s-1-.4477153-1-1v-1h-1c-.55228475 0-1-.4477153-1-1s.44771525-1 1-1h1v-1c0-.5522847.44771525-1 1-1s1 .4477153 1 1zm36 8h2c.5522847 0 1 .4477153 1 1s-.4477153 1-1 1h-2v2c0 .5522847-.4477153 1-1 1s-1-.4477153-1-1v-2h-2c-.5522847 0-1-.4477153-1-1s.4477153-1 1-1h2v-2c0-.5522847.4477153-1 1-1s1 .4477153 1 1zm-26-41h2c.5522847 0 1 .44771525 1 1s-.4477153 1-1 1h-2v2c0 .55228475-.4477153 1-1 1s-1-.44771525-1-1v-2h-2c-.55228475 0-1-.44771525-1-1s.44771525-1 1-1h2v-2c0-.55228475.4477153-1 1-1s1 .44771525 1 1z" fill="#feb538" opacity=".4"/></g></svg>