<svg height="49" viewBox="0 0 49 49" width="49" xmlns="http://www.w3.org/2000/svg"><g fill="#feb538" fill-rule="evenodd"><path d="m16.0262348 26.9985756c-.9046395 0-1.3650589-1.0609991-.735615-1.6951653l15.8749578-15.99405626c.7434867-.74906448 2.0180301-.02576698 1.7188383.97543276l-3.2023034 10.7160177h5.2916527c.9046395 0 1.3650589 1.0609991.735615 1.6951652l-15.8749578 15.9940563c-.7581325.7638202-2.0518069-.0027596-1.7072478-1.011647l3.6474072-10.6798034zm1.9737652-1.3465343h4.7137327c.6935597 0 1.1832978.6831674.9639749 1.3447111l-2.6533317 8.0032476 10.9756241-11.391239h-4.2056733c-.6774125 0-1.1651495-.6538497-.975474-1.3076994l2.4080582-8.3010616z" fill-rule="nonzero"/><path d="m47 11h1c.5522847 0 1 .4477153 1 1s-.4477153 1-1 1h-1v1c0 .5522847-.4477153 1-1 1s-1-.4477153-1-1v-1h-1c-.5522847 0-1-.4477153-1-1s.4477153-1 1-1h1v-1c0-.55228475.4477153-1 1-1s1 .44771525 1 1zm-43 25h1c.55228475 0 1 .4477153 1 1s-.44771525 1-1 1h-1v1c0 .5522847-.44771525 1-1 1s-1-.4477153-1-1v-1h-1c-.55228475 0-1-.4477153-1-1s.44771525-1 1-1h1v-1c0-.5522847.44771525-1 1-1s1 .4477153 1 1zm36 8h2c.5522847 0 1 .4477153 1 1s-.4477153 1-1 1h-2v2c0 .5522847-.4477153 1-1 1s-1-.4477153-1-1v-2h-2c-.5522847 0-1-.4477153-1-1s.4477153-1 1-1h2v-2c0-.5522847.4477153-1 1-1s1 .4477153 1 1zm-26-41h2c.5522847 0 1 .44771525 1 1s-.4477153 1-1 1h-2v2c0 .55228475-.4477153 1-1 1s-1-.44771525-1-1v-2h-2c-.55228475 0-1-.44771525-1-1s.44771525-1 1-1h2v-2c0-.55228475.4477153-1 1-1s1 .44771525 1 1z" opacity=".7"/></g></svg>