<?xml version="1.0" encoding="UTF-8"?> <svg xmlns="http://www.w3.org/2000/svg" width="134" height="123" viewBox="0 0 134 123" fill="none"><path d="M65.1163 77.8698C64.5876 77.4819 63.8437 77.5951 63.4552 78.1241L63.3085 78.3238C62.9204 78.8523 63.0334 79.5951 63.5613 79.984C63.7734 80.1404 64.0205 80.2159 64.2653 80.2159C64.6295 80.2159 64.989 80.049 65.2218 79.7335L65.3708 79.531C65.7591 79.0021 65.6452 78.2583 65.1163 77.8698Z" fill="black"></path><path d="M65.4251 89.1749L62.3689 83.6176L65.2223 79.7313C65.6109 79.2024 65.4969 78.4586 64.9678 78.0701C64.4389 77.6815 63.6951 77.7956 63.3067 78.3248L60.0041 82.8227C59.7303 83.1955 59.6979 83.6933 59.9207 84.0987L63.3427 90.3202V90.32C63.5592 90.7133 63.9657 90.9359 64.3851 90.9359C64.5787 90.9357 64.7751 90.8884 64.9567 90.7886C65.5316 90.4724 65.7413 89.7499 65.4251 89.1749Z" fill="black"></path><path d="M74.2805 82.8229L70.9914 78.3433C70.7186 77.9719 70.2564 77.7914 69.8042 77.8809C69.3522 77.9697 68.9924 78.3121 68.8806 78.7589C68.7948 79.1021 68.8664 79.4654 69.0757 79.7505L71.9151 83.6178L68.8798 89.1373C68.7834 89.3126 68.7328 89.5103 68.7328 89.7106C68.7328 90.253 69.1001 90.7266 69.6255 90.8615C69.7239 90.8869 69.8232 90.8992 69.9212 90.8992C70.3466 90.8992 70.7498 90.6696 70.9624 90.2835L74.3639 84.0991C74.5869 83.6935 74.5543 83.1957 74.2805 82.8229Z" fill="black"></path><path d="M76.1649 64.1481C75.7741 63.9428 75.3016 63.9708 74.9379 64.2215C74.2311 64.7084 73.5752 65.2243 72.9885 65.7546C69.7905 68.6457 66.7521 68.2544 66.6331 68.2374C66.5614 68.2262 66.4885 68.2209 66.4165 68.2233C65.1526 68.2557 62.8738 67.1008 60.4631 65.2074C60.0943 64.9179 59.7163 64.642 59.3388 64.3872C58.9747 64.1412 58.5042 64.1164 58.1163 64.3227C57.7282 64.5289 57.4857 64.9325 57.4857 65.372V69.4486C57.4857 69.8091 57.6497 70.1498 57.9308 70.3755C57.9641 70.4023 57.9987 70.427 58.0344 70.4498L66.4605 76.0803C66.4619 76.0812 66.4631 76.0823 66.4645 76.0832L66.4868 76.098C66.6851 76.2293 66.9137 76.2956 67.1431 76.2956C67.3361 76.2956 67.5291 76.2488 67.7055 76.1545C67.7427 76.1346 67.7784 76.1127 67.8127 76.0894C67.8167 76.0868 67.8207 76.0842 67.8248 76.0814C67.8295 76.0784 67.8341 76.0753 67.8388 76.0721L76.2451 70.4549C76.2789 70.4334 76.3118 70.4104 76.3435 70.3857C76.6319 70.1605 76.8005 69.815 76.8005 69.449V65.2002C76.8005 64.7584 76.5559 64.3536 76.1649 64.1481ZM74.4237 68.813L67.1429 73.6781L59.8623 68.8129V67.7321C61.6351 69.0204 64.243 70.6006 66.3687 70.6005C66.3731 70.6005 66.378 70.6005 66.3826 70.6005C67.0963 70.6794 70.7359 70.894 74.424 67.6587V68.813H74.4237Z" fill="black"></path><path d="M68.3166 74.9122C68.2382 74.4409 67.885 74.0625 67.4202 73.9515C66.9551 73.8413 66.4694 74.0191 66.1866 74.4043L63.4552 78.1246C63.0667 78.6537 63.1807 79.3974 63.7099 79.7858C63.9217 79.9415 64.168 80.0164 64.4122 80.0164C64.7776 80.0164 65.1381 79.8483 65.3712 79.531L68.0883 75.8303C68.2429 75.6282 68.3329 75.3768 68.3329 75.108C68.3328 75.0426 68.3273 74.9767 68.3166 74.9122Z" fill="black"></path><path d="M85.2484 36.6022C85.2247 36.416 84.6681 32.3985 80.8864 30.8136C80.9962 30.108 80.9847 29.2012 80.5367 28.3189C79.9346 27.1331 78.7465 26.3604 77.0052 26.0218C76.9305 26.0073 76.8547 26 76.7785 26H60.8287C54.3523 26 49.0832 31.269 49.0832 37.7457V44.0043C49.0832 45.6348 49.639 47.2249 50.648 48.4813C51.1482 49.1042 51.7643 50.1922 51.8573 51.837C51.8935 52.4792 52.4311 52.9754 53.0773 52.9576C53.7203 52.9395 54.232 52.4129 54.232 51.7697V43.61C55.0389 40.2729 57.7929 39.6235 58.2663 39.5358H63.4255C64.0324 39.5358 64.6291 39.4431 65.1995 39.2603C66.1805 38.9456 67.7368 38.3666 68.8699 37.9362C69.6279 37.6481 70.4672 37.6375 71.2328 37.9066L76.756 39.8455C79.5172 40.8641 80.01 43.2881 80.0711 43.6689V53.4618C80.0711 54.0838 80.5506 54.5998 81.1708 54.6461C81.201 54.6483 81.2307 54.6495 81.2603 54.6495C81.8432 54.6494 82.3465 54.2223 82.4347 53.6371C82.4394 53.6065 82.9138 50.5415 84.4439 48.0876C84.9763 47.2333 85.2578 46.2593 85.2578 45.2709V36.7522C85.2578 36.7021 85.2547 36.652 85.2484 36.6022ZM82.881 45.2704C82.881 45.8012 82.7312 46.3278 82.4476 46.7961V43.5876C82.4476 43.5447 82.4453 43.502 82.4406 43.4593C82.422 43.2867 81.9309 39.2143 77.5676 37.6114C77.5622 37.6095 77.5569 37.6076 77.5515 37.6057L72.02 35.6637C71.3963 35.4448 70.7438 35.3355 70.0918 35.3355C69.3905 35.3355 68.6898 35.4619 68.0257 35.7145C66.4394 36.3172 65.2109 36.7607 64.4736 36.9971C64.1382 37.1046 63.7855 37.1592 63.4253 37.1592H58.1702C58.1193 37.1592 58.0682 37.1625 58.0176 37.169C57.8165 37.1951 53.0767 37.8691 51.8839 43.2153C51.865 43.3003 51.8554 43.3871 51.8554 43.4741V45.9198C51.5966 45.3219 51.4596 44.6687 51.4596 44.0044V37.746C51.4596 32.58 55.6626 28.3769 60.8285 28.3769H76.6585C77.3139 28.5166 78.1104 28.8031 78.4125 29.3859C78.7825 30.0994 78.361 31.0817 78.3606 31.0825C78.2087 31.4058 78.2105 31.7802 78.3649 32.1021C78.5195 32.424 78.8108 32.6593 79.1581 32.7429C82.1834 33.4712 82.8004 36.3728 82.8809 36.8421V45.2704H82.881Z" fill="black"></path><path d="M82.4389 43.4593C82.4203 43.2867 81.9292 39.2142 77.5659 37.6114C77.5605 37.6095 77.5552 37.6076 77.5498 37.6056L72.0183 35.6637C70.7237 35.2093 69.3054 35.2275 68.0239 35.7142C66.4375 36.3169 65.209 36.7604 64.4717 36.997C64.1364 37.1044 63.7837 37.1589 63.4235 37.1589H58.1684C58.1175 37.1589 58.0664 37.1622 58.0157 37.1687C57.8146 37.1948 53.0749 37.8688 51.8821 43.215C51.8631 43.3 51.8535 43.3868 51.8535 43.4738V53.6894C51.8535 53.6982 51.8537 53.707 51.8538 53.7158C51.8616 54.0706 52.1127 62.451 57.903 66.2836L57.933 66.3047C57.9578 66.3223 57.9827 66.3399 58.0086 66.3573C58.3387 66.5802 58.6703 66.8223 58.9945 67.0768C60.6814 68.4014 63.8603 70.6007 66.3681 70.6007C66.3727 70.6007 66.3771 70.6007 66.3819 70.6007C66.5181 70.6156 66.7612 70.6357 67.091 70.6357C68.5122 70.6357 71.5444 70.2632 74.5815 67.5177C75.0912 67.0571 75.6643 66.6066 76.2856 66.1786L76.3745 66.1164C76.4034 66.0959 76.4324 66.0753 76.4623 66.0553C78.3938 64.758 81.739 61.4107 82.4413 53.5675C82.4444 53.5324 82.4461 53.4968 82.4461 53.4614V43.5876C82.4459 43.5448 82.4435 43.5021 82.4389 43.4593ZM80.0691 53.4077C79.4216 60.486 76.4058 63.23 75.137 64.0821C75.092 64.1124 75.0475 64.1437 75.0031 64.175L74.9372 64.2214C74.2303 64.7083 73.5744 65.2242 72.9877 65.7545C69.8016 68.6349 66.7732 68.2571 66.6246 68.2362C66.5556 68.2259 66.4856 68.2215 66.4157 68.2234C65.1518 68.2558 62.873 67.1009 60.4623 65.2076C60.0936 64.918 59.7155 64.642 59.3385 64.3877L59.3093 64.3671C59.2807 64.3468 59.2523 64.3266 59.2188 64.3043C54.5462 61.2116 54.2405 53.9743 54.2302 53.6722V43.6099C55.04 40.2606 57.8109 39.6185 58.2626 39.5356H63.4236C64.0305 39.5356 64.6273 39.443 65.1977 39.2601C66.1786 38.9455 67.7351 38.3664 68.868 37.9361C69.6261 37.6479 70.4654 37.6373 71.231 37.9064L76.7542 39.8453C79.5154 40.8639 80.0082 43.2879 80.0693 43.6687V53.4077H80.0691Z" fill="black"></path><path d="M68.2062 74.5766C68.021 74.2063 67.6564 73.959 67.2439 73.9239C66.8321 73.8898 66.4304 74.0709 66.1854 74.4048L63.3388 78.2817C62.9507 78.8105 63.0641 79.5537 63.5925 79.9424C63.8044 80.0983 64.0511 80.1737 64.2956 80.1737C64.6602 80.1737 65.0202 80.0063 65.2531 79.6902L68.0998 75.8275C68.2504 75.6232 68.3317 75.3621 68.3317 75.1084C68.3318 74.9241 68.2886 74.7418 68.2062 74.5766Z" fill="black"></path><path d="M68.2812 93.7099C67.8347 93.243 67.0972 93.2181 66.6205 93.6543L66.3489 93.9027C65.9421 94.2746 65.8445 94.8775 66.1133 95.3588L66.1217 95.3738C66.3032 95.699 66.6269 95.9203 66.9957 95.9715C67.0504 95.9791 67.105 95.9828 67.1593 95.9828C67.4722 95.9828 67.7752 95.8591 67.9996 95.6346L68.2628 95.3712C68.7195 94.9145 68.7277 94.1765 68.2812 93.7099Z" fill="black"></path><path d="M67.9386 93.9028L67.6669 93.6543C67.1903 93.2183 66.4525 93.2431 66.0061 93.7099C65.5595 94.1769 65.5678 94.915 66.0246 95.3716L66.2882 95.6351C66.5127 95.8595 66.8155 95.9831 67.1283 95.9831C67.1842 95.9831 67.2404 95.9792 67.2965 95.9711C67.6666 95.9183 67.9903 95.6941 68.1703 95.3663L68.1787 95.3513C68.442 94.8708 68.3428 94.2724 67.9386 93.9028Z" fill="black"></path><path d="M67.9558 93.9212L67.9543 93.9198C67.7707 93.7482 67.5334 93.6351 67.2719 93.6064C66.9217 93.5683 66.5806 93.6869 66.3325 93.9179L66.3289 93.9212C66.0887 94.1403 65.9488 94.4485 65.9418 94.7735C65.9348 95.0989 66.0614 95.4126 66.2919 95.6418L66.3044 95.6543C66.5362 95.8848 66.8392 96 67.1423 96C67.4465 96 67.7506 95.8838 67.9824 95.6521L67.9949 95.6396C68.2244 95.41 68.3502 95.0966 68.3426 94.772C68.3355 94.4474 68.1956 94.14 67.9558 93.9212Z" fill="black"></path><path d="M67.5284 73.9574C67.0363 73.7998 66.4963 73.9826 66.1966 74.404C65.8614 74.876 65.9167 75.5191 66.3251 75.9294C66.5549 76.1603 66.8599 76.2787 67.1673 76.2787C67.406 76.2787 67.646 76.2073 67.853 76.0615C68.1692 75.839 68.3575 75.4765 68.3575 75.0897V75.0868C68.3575 74.5697 68.0211 74.1146 67.5284 73.9574Z" fill="black"></path><path d="M68.1089 74.3944L68.0987 74.3807C67.7938 73.9681 67.2584 73.7981 66.7712 73.9586C66.284 74.1191 65.9548 74.5743 65.9548 75.0871V75.1075C65.9548 75.545 66.2004 75.9437 66.5859 76.1508C66.7605 76.2445 66.9533 76.2908 67.1457 76.2908C67.3779 76.2908 67.6097 76.2235 67.809 76.0915C68.0807 75.9116 68.2667 75.628 68.3234 75.3072C68.3801 74.9865 68.3025 74.6564 68.1089 74.3944Z" fill="black"></path><path d="M81.2797 70.6614C81.1566 70.3359 80.897 70.0808 80.5694 69.9636L76.0131 68.3303C75.9762 68.3171 75.9379 68.3053 75.8997 68.2959C75.5745 68.2145 75.2299 68.2743 74.9513 68.4607L66.509 74.1019C66.5068 74.1034 66.5043 74.105 66.502 74.1066L67.1649 75.0922L66.4872 74.1166C66.2395 74.2804 66.0622 74.5315 65.9902 74.8195C65.9507 74.9776 65.9443 75.1428 65.971 75.3035C66.0016 75.4872 66.0749 75.6613 66.1853 75.8116L72.3662 84.2295C72.5908 84.5357 72.9471 84.7147 73.3238 84.7147C73.3496 84.7147 73.3756 84.7137 73.4015 84.7119C73.8064 84.6853 74.1697 84.4544 74.3652 84.0987L81.2094 71.6548C81.3773 71.3498 81.403 70.9866 81.2797 70.6614ZM73.18 81.3221L68.8358 75.4055L75.7741 70.7693L78.4555 71.7306L73.18 81.3221Z" fill="black"></path><path d="M68.315 74.9028C68.2591 74.5838 68.0756 74.3014 67.8065 74.1209L59.3361 68.4608C59.0665 68.2804 58.7342 68.2186 58.4175 68.2889C58.3689 68.2996 58.3211 68.3136 58.2743 68.3304L53.718 69.9637C53.3904 70.0811 53.1308 70.3361 53.0077 70.6615C52.8845 70.987 52.9101 71.3499 53.0778 71.655L59.922 84.0989C60.1175 84.4544 60.4809 84.6854 60.8857 84.7121C60.9115 84.7137 60.9375 84.7145 60.9633 84.7145C61.34 84.7145 61.6962 84.5355 61.9212 84.2293L65.2238 79.7314C65.2264 79.728 65.229 79.7242 65.2316 79.7205L68.1022 75.8108C68.2939 75.5497 68.3707 75.2218 68.315 74.9028ZM63.3082 78.3243C63.3054 78.3281 63.3026 78.332 63.2997 78.3358L61.107 81.3223L55.8315 71.7306L58.513 70.7694L65.4511 75.4057L63.3082 78.3243Z" fill="black"></path><path d="M102.228 90.9476L100.695 81.6906C100.212 78.7733 98.1841 76.336 95.4034 75.3303L80.5728 69.9647C80.1156 69.7994 79.6045 69.929 79.2813 70.2917C78.9582 70.6545 78.8883 71.1775 79.1052 71.6126L82.2016 77.8222L79.1633 77.869C78.7508 77.8754 78.3709 78.0951 78.1602 78.4498C77.9493 78.8045 77.9375 79.243 78.1289 79.6085L79.3751 81.988L66.6217 93.6547C66.6086 93.6666 66.5959 93.6787 66.5834 93.6912L66.3201 93.9545C65.9471 94.3276 65.8646 94.902 66.1179 95.3649L66.1272 95.3818C66.3357 95.7627 66.7355 95.9998 67.1698 95.9998H97.9433C99.2218 95.9998 100.429 95.4407 101.256 94.4657C102.082 93.4908 102.437 92.2084 102.228 90.9476ZM99.4432 92.9286C99.0687 93.3701 98.5221 93.6233 97.9434 93.6233H70.177L81.6548 83.1238C82.053 82.7599 82.1559 82.1736 81.9055 81.6957L81.1302 80.2154L84.1264 80.1693C84.5348 80.1631 84.9111 79.9475 85.1234 79.5987C85.3355 79.2496 85.3538 78.8163 85.1716 78.4507L82.5583 73.2101L94.5955 77.5649C96.5689 78.2787 98.0077 80.0084 98.3505 82.0787L99.8834 91.3357C99.8834 91.3358 99.8834 91.3358 99.8834 91.3358C99.9779 91.9068 99.8175 92.4872 99.4432 92.9286Z" fill="black"></path><path d="M67.9668 93.9306L67.953 93.9181C67.4827 93.4923 66.7603 93.5112 66.3128 93.9612L66.3004 93.9737C65.962 94.3142 65.8617 94.8249 66.0459 95.268C66.2303 95.7113 66.6633 95.9999 67.1432 95.9999H67.1693C67.6606 95.9999 68.1014 95.6974 68.2779 95.239C68.4548 94.7804 68.3312 94.2604 67.9668 93.9306Z" fill="black"></path><path d="M67.9274 93.8965C67.6576 93.6536 67.2918 93.5472 66.9335 93.6083C66.5756 93.6689 66.2651 93.89 66.0905 94.2082L66.0822 94.2232C65.8317 94.6799 65.9079 95.2466 66.2702 95.6211L66.2744 95.6255C66.5073 95.8661 66.8175 95.9875 67.1286 95.9875C67.4148 95.9875 67.7018 95.8845 67.9292 95.6768L67.9417 95.6656C68.0496 95.5673 68.1385 95.4495 68.2039 95.3188C68.4431 94.8407 68.3248 94.254 67.9274 93.8965Z" fill="black"></path><path d="M67.9804 93.9689L67.9755 93.9639C67.9723 93.9607 67.969 93.9574 67.966 93.9544L67.7024 93.6911C67.6901 93.6786 67.6773 93.6664 67.6644 93.6547L54.911 81.988L56.1573 79.6086C56.3488 79.2431 56.3369 78.8045 56.1262 78.4498C55.9153 78.0952 55.5356 77.8754 55.1231 77.869L52.0845 77.8222L55.1809 71.6126C55.3978 71.1777 55.3278 70.6545 55.0048 70.2917C54.6817 69.9289 54.17 69.7992 53.7133 69.9647L38.8828 75.3303C36.1021 76.3359 34.0746 78.7732 33.5915 81.6906L32.0585 90.9476C31.8497 92.2089 32.2042 93.4911 33.0309 94.4659C33.8577 95.4407 35.065 95.9998 36.3431 95.9998H67.1428C67.6241 95.9998 68.0577 95.7095 68.2411 95.2647C68.4247 94.8199 68.3217 94.3082 67.9804 93.9689ZM36.3432 93.6233C35.7644 93.6233 35.2178 93.3701 34.8436 92.9287C34.4694 92.4873 34.309 91.9068 34.4035 91.3357L35.9365 82.0787C36.2792 80.0082 37.718 78.2788 39.6914 77.5649L51.7285 73.2101L49.1153 78.4505C48.933 78.8161 48.9511 79.2493 49.1635 79.5984C49.3756 79.9474 49.7521 80.1629 50.1605 80.1691L53.1567 80.2153L52.3814 81.6956C52.1311 82.1733 52.2341 82.7598 52.6319 83.1237L64.1098 93.6233H36.3432Z" fill="black"></path><path d="M71.1872 79.3344C71.273 78.9912 71.2015 78.6278 70.9922 78.3427L68.1003 74.4043C67.7964 73.9903 67.2604 73.8257 66.7726 73.9858C66.5091 74.0721 66.2921 74.2465 66.1477 74.4693L63.3087 78.3214C63.268 78.3763 63.2319 78.4353 63.2013 78.4966C63.0068 78.8857 63.0404 79.35 63.2889 79.7071L64.4979 81.4432L63.21 89.5613C63.1686 89.822 63.2153 90.0889 63.3424 90.3202L66.1014 95.3364C66.3102 95.7163 66.7094 95.9521 67.1427 95.9521C67.576 95.9521 67.9751 95.7163 68.1839 95.3364L70.9635 90.283C71.0599 90.1076 71.1105 89.9106 71.1105 89.7104V89.7097C71.1105 89.6474 71.1054 89.5851 71.0958 89.5235L69.8138 81.4433L71.0097 79.7263C71.0918 79.6074 71.1524 79.4744 71.1872 79.3344ZM67.1427 92.2981L65.6209 89.5316L66.9201 81.3431C66.9683 81.0397 66.8971 80.7298 66.7216 80.4779L65.7258 79.0477L67.1461 77.1206L68.5738 79.065L67.5899 80.4779C67.4145 80.7296 67.3434 81.0397 67.3914 81.3431L68.6847 89.4942L67.1427 92.2981Z" fill="black"></path></svg> 