<?xml version="1.0" ?><svg data-name="Layer 1" id="Layer_1" viewBox="0 0 512 512" xmlns="http://www.w3.org/2000/svg"><path d="M319.13,131.46H425.69a5.1,5.1,0,1,0,0-10.2H319.13a5.1,5.1,0,0,0,0,10.2Z"/><path d="M425.69,148.83H367.27a5.1,5.1,0,1,0,0,10.2h58.42a5.1,5.1,0,1,0,0-10.2Z"/><path d="M319.13,159h18.7a5.1,5.1,0,1,0,0-10.2h-18.7a5.1,5.1,0,0,0,0,10.2Z"/><path d="M425.69,176.4h-20.1a5.1,5.1,0,1,0,0,10.2h20.1a5.1,5.1,0,1,0,0-10.2Z"/><path d="M319.13,186.6H386.9a5.1,5.1,0,1,0,0-10.2H319.13a5.1,5.1,0,0,0,0,10.2Z"/><path d="M480.51,387.64H464.64V186.93a68.75,68.75,0,0,0,9.68-34.9c0-45.27-45.71-82.1-101.9-82.1-23.34,0-44.87,6.35-62.07,17a5.06,5.06,0,0,0-.68,0H85.56a38.68,38.68,0,0,0-38.64,38.63v262.1H31.49A14.8,14.8,0,0,0,16.7,402.43v9.35A30.33,30.33,0,0,0,47,442.07H465a30.33,30.33,0,0,0,30.3-30.29v-9.35A14.8,14.8,0,0,0,480.51,387.64ZM260.27,356.48A14.32,14.32,0,1,1,246,370.79,14.34,14.34,0,0,1,260.27,356.48Zm19.89,0H454.44v31.16H278.06a24.45,24.45,0,0,0,2.1-31.16ZM464.12,152c0,39.64-41.14,71.9-91.7,71.9-20.25,0-39.45-5.09-55.53-14.71a5.08,5.08,0,0,0-2.62-.73,4.17,4.17,0,0,0-.61,0l-43,5.17,17.9-26.94a5.08,5.08,0,0,0,.17-5.36,58.5,58.5,0,0,1-8-29.37c0-39.65,41.14-71.9,91.71-71.9S464.12,112.38,464.12,152ZM85.56,97.11H296.74c-16.3,14.55-26.23,33.82-26.23,54.92a68,68,0,0,0,7.83,31.65L256,217.25a5.11,5.11,0,0,0-.09,5.5,5,5,0,0,0,4.95,2.39l52.29-6.28c17.35,10,37.79,15.27,59.25,15.27,33.6,0,63.45-13.17,82-33.44V346.28H178.53v-60.6h70.22a19.76,19.76,0,0,0,0-39.52H163.87a39.52,39.52,0,1,0-52.39.47,44.66,44.66,0,0,0-38.15,44.12v55.53H57.12V125.54A28.47,28.47,0,0,1,85.56,97.11ZM103,295.23a5.1,5.1,0,0,0-5.1,5.1v45.95H83.53V290.75a34.43,34.43,0,0,1,34.39-34.39H248.75a9.56,9.56,0,0,1,0,19.12H173.43a5.1,5.1,0,0,0-5.1,5.1v65.7H108.09V300.33A5.1,5.1,0,0,0,103,295.23Zm34.41-49.07a29.31,29.31,0,1,1,29.32-29.31A29.35,29.35,0,0,1,137.4,246.16ZM57.12,356.48H240.39a24.46,24.46,0,0,0,2.09,31.16H57.12Zm428,55.3A20.12,20.12,0,0,1,465,431.87H47a20.12,20.12,0,0,1-20.1-20.09v-9.35a4.6,4.6,0,0,1,4.59-4.59h449a4.6,4.6,0,0,1,4.59,4.59Z"/></svg>