<?xml version="1.0" encoding="UTF-8"?> <svg xmlns="http://www.w3.org/2000/svg" width="134" height="123" viewBox="0 0 134 123" fill="none"><path d="M50.5995 83.199C51.651 81.6082 52.2653 79.7042 52.2653 77.6586C52.2653 72.105 47.7453 67.5869 42.1894 67.5869C36.6335 67.5869 32.1137 72.105 32.1137 77.6586C32.1137 79.7043 32.7281 81.6083 33.7796 83.1993C29.7829 84.8549 27.001 88.8223 27.001 93.2858V99.4571C27.001 100.309 27.6918 101 28.544 101H55.835C56.6871 101 57.3779 100.309 57.3779 99.4571V93.2858C57.3779 88.8217 54.5961 84.8543 50.5995 83.199V83.199ZM42.1894 70.6729C46.0436 70.6729 49.1794 73.8066 49.1794 77.6586C49.1794 81.513 46.0437 84.6488 42.1894 84.6488C38.3352 84.6488 35.1996 81.513 35.1996 77.6586C35.1996 73.8066 38.3352 70.6729 42.1894 70.6729ZM54.292 97.9141H30.087V93.2858C30.087 89.6722 32.6298 86.5114 36.0992 85.6787C37.7921 86.9675 39.9024 87.7347 42.1894 87.7347C44.4764 87.7347 46.5869 86.9675 48.2798 85.6787C51.7492 86.5108 54.292 89.6717 54.292 93.2858V97.9141Z" fill="white"></path><path d="M99.2167 83.1988C100.268 81.608 100.882 79.7042 100.882 77.6586C100.882 72.105 96.3624 67.5869 90.8066 67.5869C85.2531 67.5869 80.7352 72.105 80.7352 77.6586C80.7352 79.7037 81.349 81.6074 82.3997 83.1981C78.4014 84.8529 75.6182 88.8211 75.6182 93.2858V99.4571C75.6182 100.309 76.309 101 77.1612 101H104.457C105.309 101 106 100.309 106 99.4571V93.2858C105.999 88.8217 103.216 84.854 99.2167 83.1988ZM90.8066 70.6729C94.6608 70.6729 97.7964 73.8066 97.7964 77.6586C97.7964 81.513 94.6608 84.6488 90.8066 84.6488C86.9547 84.6488 83.8211 81.513 83.8211 77.6586C83.8211 73.8066 86.9547 70.6729 90.8066 70.6729ZM102.913 97.9141H78.704V93.2858C78.704 89.6716 81.2479 86.5102 84.7183 85.6782C86.4107 86.9672 88.5204 87.7347 90.8066 87.7347C93.0936 87.7347 95.2041 86.9674 96.897 85.6785C100.369 86.511 102.913 89.6719 102.913 93.2858V97.9141H102.913Z" fill="white"></path><path d="M90.8492 62.7711C91.1019 62.933 91.3911 63.0146 91.6812 63.0146C91.9308 63.0146 92.1809 62.9541 92.4088 62.8322C92.9013 62.5688 93.213 62.0596 93.2238 61.5012L93.313 56.8452C97.4003 55.843 100.432 52.1059 100.432 47.7907C100.432 43.2757 97.2041 39.5014 92.9353 38.6514C93.1548 37.6744 93.2678 36.6766 93.2678 35.6667C93.2676 28.1308 87.137 22 79.6012 22H69.074C68.2219 22 67.5311 22.6908 67.5311 23.543C67.5311 24.3952 68.2219 25.0859 69.074 25.0859H79.6012C85.4354 25.0859 90.1818 29.8326 90.1818 35.6668C90.1818 36.6195 90.053 37.5587 89.8007 38.4713H68.7242C64.1114 38.4713 60.2728 41.841 59.5351 46.2478H55.3893C55.0404 46.2478 54.7019 46.3659 54.4288 46.583L45.2903 53.8512L45.1713 47.7125C45.156 46.9239 44.5484 46.2737 43.7626 46.2052C38.348 45.7335 34.1065 41.1044 34.1065 35.6665C34.1065 29.8326 38.8548 25.0859 44.6914 25.0859H55.2186C56.0708 25.0859 56.7616 24.3952 56.7616 23.543C56.7616 22.6908 56.0708 22 55.2186 22H44.6914C37.1533 22 31.0206 28.1308 31.0206 35.6668C31.0206 39.0958 32.308 42.3803 34.6459 44.9157C36.649 47.0881 39.2614 48.5395 42.1114 49.0873L42.2653 57.0316C42.2767 57.6185 42.62 58.1481 43.1511 58.3979C43.3605 58.4965 43.5847 58.5448 43.8078 58.5448C44.1505 58.5448 44.4902 58.4307 44.7684 58.2095L55.9279 49.3338H59.5351C60.2728 53.7406 64.1114 57.1103 68.7242 57.1103H82.0057L90.8492 62.7711ZM62.491 47.7907C62.491 44.3536 65.2873 41.5573 68.7242 41.5573H91.1126C94.5495 41.5573 97.3459 44.3536 97.3459 47.7907C97.3459 50.9942 94.8487 53.7214 91.6608 53.9993C90.8748 54.0678 90.2672 54.7182 90.2522 55.507L90.1913 58.6858L83.2891 54.2675C83.0408 54.1086 82.7521 54.024 82.4573 54.024H68.7242C65.2871 54.0242 62.491 51.2278 62.491 47.7907Z" fill="white"></path><path d="M71.1651 46.2456C70.3129 46.2456 69.6221 46.9386 69.6221 47.7907C69.6221 48.6429 70.3129 49.3337 71.1651 49.3337C72.0173 49.3337 72.7081 48.6429 72.7081 47.7907V47.7864C72.7081 46.9342 72.0173 46.2456 71.1651 46.2456V46.2456Z" fill="white"></path><path d="M79.9188 46.2456C79.0666 46.2456 78.3759 46.9386 78.3759 47.7907C78.3759 48.6429 79.0666 49.3337 79.9188 49.3337C80.771 49.3337 81.4618 48.6429 81.4618 47.7907V47.7864C81.4618 46.9342 80.771 46.2456 79.9188 46.2456V46.2456Z" fill="white"></path><path d="M88.6729 49.3337C89.5251 49.3337 90.2159 48.6429 90.2159 47.7907V47.7864C90.2159 46.9342 89.5251 46.2456 88.6729 46.2456C87.8207 46.2456 87.1299 46.9386 87.1299 47.7907C87.1299 48.6429 87.8207 49.3337 88.6729 49.3337V49.3337Z" fill="white"></path><path d="M62.1454 25.0859H62.1542C63.0064 25.0859 63.6929 24.3952 63.6929 23.543C63.6929 22.6908 62.9978 22 62.1456 22C61.2934 22 60.6026 22.6908 60.6026 23.543C60.6026 24.3952 61.2932 25.0859 62.1454 25.0859Z" fill="white"></path></svg> 