<svg height="50" viewBox="0 0 50 50" width="50" xmlns="http://www.w3.org/2000/svg"><g fill="#feb538" fill-rule="evenodd"><path d="m25 37c0-.5522847.4477153-1 1-1s1 .4477153 1 1v3c0 .5522847-.4477153 1-1 1s-1-.4477153-1-1zm-3-1.052831c3.6837932 0 4.8446045.0875687 5.8550825-.9594672.3753568-.3889369 1.0452471-.5390667 1.4855547-.221841.4403076.3172258.3813228 1.1319894 0 1.5130372-1.4855547 1.4844834-3.0244304 1.7033431-7.3406372 1.7033431-1.6030621 0-3.2459287-1.0482398-3.581665-1.3598614s-.7112282-1.0040592-.7112282-1.5392931c0-.535234-.0548799-.6230902-.0836327-1.1857396-.0287528-.5626495-.4658538-1.8225325-.1766968-2.2045925.2891571-.3820599.933547-.7040838 1.8399659-.7286801.9351436-.0026658 1.601546-.7511703 1.607684-.9332589l-3.101534-.2471798c-.5004288-.0636505-.7928932-.6067155-.7928932-1.1198826v-1.1191684c-1.2673958-.465355-2-1.1942595-2-2.2815441 0-.9780596.4530096-1.8999669 1.2928932-2.7545787 1.1507212-1.1709003 1.7071068-2.0201139 1.7071068-2.3331015 0-1.253771.5639641-3.9317554 1.1055728-5.0339681.5237695-1.0659086 1.2588997-2.085938 2.3947322-3.0105383 1.6618369-1.3527832 3.8167924-2.130854 6.499695-2.130854 6.5358668 0 12 4.3805686 12 10.6841284 0 3.161614-.4721002 5.0492393-1.4422587 6.7501733-.136958.240122-.5599289.9292231-.6050801 1.0061436-.2561927.4364552-.3944189.7518155-.47827 1.1215421-.270793 1.1940139-.3759528 1.7627797-.4266165 2.3186843-.0409753.4496005-.0477905.7971189-.0477751 1.9880495.0000004 1.2372978.2952933 2.4391824.8944276 3.6584639.2469892.5026409.0467649 1.1138474-.4472136 1.3651679-.4939785.2513204-1.0946515.0475849-1.3416408-.455056-.734199-1.494148-1.1055728-3.0056927-1.1055728-4.5252001-.0000167-1.3026356.0074437-1.6830542.0563195-2.2193424.0610174-.6695103.1797643-1.3117632.4692893-2.5883724.1373289-.6055274.355926-1.1042521.7100084-1.7074744.0615608-.1048762.4753911-.7790855.5923396-.9841259.7881773-1.3818746 1.1720432-2.9167078 1.1720432-5.7286534 0-5.0589259-4.4781745-8.6490563-10-8.6490563-2.2261884 0-3.9411274.6191979-5.250305 1.6849062-.8802966.7165868-1.4504658 1.5077247-1.8552678 2.3315259-.3958913.8056673-.8944272 3.1729658-.8944272 4.1238562 0 1.0437271-.7769477 2.2295856-2.2928932 3.7721147-.4934498.502103-.7071068.9369104-.7071068 1.3155655 0-.0041576.6941426.3996467 1.2425356.5391491.445167.1132433.7574644.5202406.7574644.9871549v1.170702l3.1240347.3634596c.5004289.0636506.8759653.4965114.8759653 1.0096785 0 1.5286514-1.470302 2.5073083-3.4743678 3.322992-.0768909.0312956-.2664539 0-.238889.0638057 0 .7339624.1254882 1.5991289.3181936 2.3631042.7128947.5825401 1.501067.8640824 2.3950632.8640824zm-7.9777921-7.7833309c.3602678.2553998.4307381.7346886.1574889 1.0711279-.8650271 1.0627884-.6448996 2.5780763.492153 3.3878245.3624114.253529.4358595.7330893.1640509 1.0711279-.2718085.3380387-.7859454.4065473-1.1483568.1530183-.8985553-.6312251-1.4910215-1.5699085-1.6467434-2.6090441-.155722-1.0391356.1380912-2.0933709.8166454-2.9302174.132262-.1654075.3305465-.2739706.5498576-.3010534.2193111-.0270829.4410521.029611.6149044.1572163zm-1.0279116 8.1502855c-.0338218.2763321-.2148394.5139122-.4748653.623246-.2600258.1093339-.5595558.0738111-.7857598-.0931871-1.461197-1.090278-2.42183109-2.707887-2.6700711-4.496125-.24824-1.788238.23630242-3.6002344 1.3467799-5.0364224.169653-.2226644.4470973-.3393222.7278222-.3060297.280725.0332926.5220818.2114776.6331537.4674345.111072.2559569.0749845.5507998-.0946685.7734641-.8549249 1.1057526-1.2284967 2.5005642-1.0385054 3.8774862.1899913 1.3769219.9279765 2.6231206 2.0515513 3.4643516.2198725.176347.3383848.4494497.304563.7257818z" fill-rule="nonzero"/><path d="m44 2h1c.5522847 0 1 .44771525 1 1s-.4477153 1-1 1h-1v1c0 .55228475-.4477153 1-1 1s-1-.44771525-1-1v-1h-1c-.5522847 0-1-.44771525-1-1s.4477153-1 1-1h1v-1c0-.55228475.4477153-1 1-1s1 .44771525 1 1zm-24 44h1c.5522847 0 1 .4477153 1 1s-.4477153 1-1 1h-1v1c0 .5522847-.4477153 1-1 1s-1-.4477153-1-1v-1h-1c-.5522847 0-1-.4477153-1-1s.4477153-1 1-1h1v-1c0-.5522847.4477153-1 1-1s1 .4477153 1 1zm27-15h2c.5522847 0 1 .4477153 1 1s-.4477153 1-1 1h-2v2c0 .5522847-.4477153 1-1 1s-1-.4477153-1-1v-2h-2c-.5522847 0-1-.4477153-1-1s.4477153-1 1-1h2v-2c0-.5522847.4477153-1 1-1s1 .4477153 1 1zm-42-24h2c.55228475 0 1 .44771525 1 1s-.44771525 1-1 1h-2v2c0 .5522847-.44771525 1-1 1s-1-.4477153-1-1v-2h-2c-.55228475 0-1-.44771525-1-1s.44771525-1 1-1h2v-2c0-.55228475.44771525-1 1-1s1 .44771525 1 1z" opacity=".4"/></g></svg>