<svg height="49" viewBox="0 0 49 49" width="49" xmlns="http://www.w3.org/2000/svg"><g fill="#feb538" fill-rule="evenodd"><path d="m18.522656 10c-2.922865 0-5.3147145 2.4156639-5.3147145 5.3672915 0 1.4586368.5720528 2.8049925 1.5142966 3.7780886-1.0975587 1.8772924-1.7222381 4.0555774-1.7222381 6.3867716 0 3.9476901 1.8330958 7.4882848 4.661537 9.8050408l-1.6626769 2.2488637c-.3077357.4124451-.3741813.9593723-.1743018 1.4347137.1998794.4753414.6357094.8068624 1.1432808.8696546s1.0097516-.1526866 1.3173324-.5652496l1.8110572-2.4287685c1.6423483.8028422 3.461575 1.2593629 5.4038188 1.2593629 1.9397739 0 3.7924385-.4565207 5.4333618-1.2593629l1.8111523 2.4287685c.2871246.4624901.8085929.7211622 1.3465421.6679465.5379492-.0532156.9998032-.4091612 1.1926054-.9191272.1928023-.509966.0833732-1.0861919-.2825692-1.487938l-1.6626769-2.2188843c2.8440201-2.316286 4.661537-5.8732086 4.661537-9.8350202 0-2.3311942-.6251544-4.5094792-1.7222381-6.3867716.9422438-.9730961 1.5439347-2.3194518 1.5439347-3.7780886 0-2.9516276-2.4215826-5.3672915-5.3443526-5.3672915-2.1128527 0-3.954688 1.2662605-4.8098224 3.0884389-.7024793-.1246565-1.430702-.1799049-2.1674741-.1799049-.7450366 0-1.4577752.0528596-2.1675691.1799049-.8551344-1.8221784-2.6969697-3.0884389-4.8098224-3.0884389zm-.2246074 2c1.1385469 0 2.108651.5565509 2.7019514 1.3846216-2.0388584.8617508-3.8821959 2.0833006-5.4039028 3.6153784-.3649808-.514614-.5960972-1.1334428-.5960972-1.807683 0-1.8016411 1.4366591-3.192317 3.2980486-3.192317zm14.3641685 0c1.8613018 0 3.3377829 1.3906759 3.3377829 3.192317 0 .6765906-.2683702 1.2920354-.6357742 1.807683-1.5179253-1.5252483-3.3337147-2.756421-5.3642258-3.6153784.5948385-.8170696 1.5325451-1.3846216 2.6622171-1.3846216zm-7.1621654 3.0000413c5.8083017 0 10.4999483 4.6800169 10.4999483 10.4999794 0 5.8083235-4.6916466 10.4999793-10.4999483 10.4999793-5.819982 0-10.5000517-4.6916558-10.5000517-10.4999793 0-4.7180347 3.0676747-8.7129349 7.3338698-10.0476727.0543538-.0079177.1082486-.0187174.1614566-.0323534.9518909-.2818776 1.9589788-.4199946 3.0047253-.4199946zm-1.0856881 6.1796343v3.3435897h-3.1459365c-1.6752132 0-1.7071835 2.4767347 0 2.4767347h4.4387978c.8420876 0 1.2927751-.5277202 1.2927751-1.2383632v-4.5819612c0-1.593272-2.5856364-1.5523968-2.5856364 0z"/><path d="m47 12h1c.5522847 0 1 .4477153 1 1s-.4477153 1-1 1h-1v1c0 .5522847-.4477153 1-1 1s-1-.4477153-1-1v-1h-1c-.5522847 0-1-.4477153-1-1s.4477153-1 1-1h1v-1c0-.5522847.4477153-1 1-1s1 .4477153 1 1zm-43 20h1c.55228475 0 1 .4477153 1 1s-.44771525 1-1 1h-1v1c0 .5522847-.44771525 1-1 1s-1-.4477153-1-1v-1h-1c-.55228475 0-1-.4477153-1-1s.44771525-1 1-1h1v-1c0-.5522847.44771525-1 1-1s1 .4477153 1 1zm38 12h2c.5522847 0 1 .4477153 1 1s-.4477153 1-1 1h-2v2c0 .5522847-.4477153 1-1 1s-1-.4477153-1-1v-2h-2c-.5522847 0-1-.4477153-1-1s.4477153-1 1-1h2v-2c0-.5522847.4477153-1 1-1s1 .4477153 1 1zm-25-41h2c.5522847 0 1 .44771525 1 1s-.4477153 1-1 1h-2v2c0 .55228475-.4477153 1-1 1s-1-.44771525-1-1v-2h-2c-.5522847 0-1-.44771525-1-1s.4477153-1 1-1h2v-2c0-.55228475.4477153-1 1-1s1 .44771525 1 1z" opacity=".4"/></g></svg>