<?xml version="1.0" standalone="no"?>
<svg xmlns:xlink="http://www.w3.org/1999/xlink" id="wave" style="transform:rotate(0deg); transition: 0.3s" viewBox="0 0 1440 130" version="1.1" xmlns="http://www.w3.org/2000/svg"><defs><linearGradient id="sw-gradient-0" x1="0" x2="0" y1="1" y2="0"><stop stop-color="rgba(255, 255, 255, 1)" offset="0%"/><stop stop-color="rgba(255, 255, 255, 1)" offset="100%"/></linearGradient></defs><path style="transform:translate(0, 0px); opacity:1" fill="url(#sw-gradient-0)" d="M0,13L80,15.2C160,17,320,22,480,30.3C640,39,800,52,960,56.3C1120,61,1280,56,1440,60.7C1600,65,1760,78,1920,80.2C2080,82,2240,74,2400,71.5C2560,69,2720,74,2880,75.8C3040,78,3200,78,3360,78C3520,78,3680,78,3840,84.5C4000,91,4160,104,4320,93.2C4480,82,4640,48,4800,32.5C4960,17,5120,22,5280,34.7C5440,48,5600,69,5760,78C5920,87,6080,82,6240,75.8C6400,69,6560,61,6720,52C6880,43,7040,35,7200,32.5C7360,30,7520,35,7680,32.5C7840,30,8000,22,8160,15.2C8320,9,8480,4,8640,15.2C8800,26,8960,52,9120,69.3C9280,87,9440,95,9600,101.8C9760,108,9920,113,10080,99.7C10240,87,10400,56,10560,39C10720,22,10880,17,11040,21.7C11200,26,11360,39,11440,45.5L11520,52L11520,130L11440,130C11360,130,11200,130,11040,130C10880,130,10720,130,10560,130C10400,130,10240,130,10080,130C9920,130,9760,130,9600,130C9440,130,9280,130,9120,130C8960,130,8800,130,8640,130C8480,130,8320,130,8160,130C8000,130,7840,130,7680,130C7520,130,7360,130,7200,130C7040,130,6880,130,6720,130C6560,130,6400,130,6240,130C6080,130,5920,130,5760,130C5600,130,5440,130,5280,130C5120,130,4960,130,4800,130C4640,130,4480,130,4320,130C4160,130,4000,130,3840,130C3680,130,3520,130,3360,130C3200,130,3040,130,2880,130C2720,130,2560,130,2400,130C2240,130,2080,130,1920,130C1760,130,1600,130,1440,130C1280,130,1120,130,960,130C800,130,640,130,480,130C320,130,160,130,80,130L0,130Z"/></svg>