<?xml version="1.0" standalone="no"?>
<svg xmlns:xlink="http://www.w3.org/1999/xlink" id="wave" style="transform:rotate(0deg); transition: 0.3s" viewBox="0 0 1440 100" version="1.1" xmlns="http://www.w3.org/2000/svg"><defs><linearGradient id="sw-gradient-0" x1="0" x2="0" y1="1" y2="0"><stop stop-color="rgba(253, 253, 253, 1)" offset="0%"/><stop stop-color="rgba(255, 255, 255, 1)" offset="100%"/></linearGradient></defs><path style="transform:translate(0, 0px); opacity:1" fill="url(#sw-gradient-0)" d="M0,40L48,40C96,40,192,40,288,46.7C384,53,480,67,576,63.3C672,60,768,40,864,36.7C960,33,1056,47,1152,58.3C1248,70,1344,80,1440,78.3C1536,77,1632,63,1728,58.3C1824,53,1920,57,2016,51.7C2112,47,2208,33,2304,38.3C2400,43,2496,67,2592,76.7C2688,87,2784,83,2880,68.3C2976,53,3072,27,3168,18.3C3264,10,3360,20,3456,30C3552,40,3648,50,3744,58.3C3840,67,3936,73,4032,68.3C4128,63,4224,47,4320,46.7C4416,47,4512,63,4608,70C4704,77,4800,73,4896,65C4992,57,5088,43,5184,40C5280,37,5376,43,5472,40C5568,37,5664,23,5760,25C5856,27,5952,43,6048,56.7C6144,70,6240,80,6336,80C6432,80,6528,70,6624,60C6720,50,6816,40,6864,35L6912,30L6912,100L6864,100C6816,100,6720,100,6624,100C6528,100,6432,100,6336,100C6240,100,6144,100,6048,100C5952,100,5856,100,5760,100C5664,100,5568,100,5472,100C5376,100,5280,100,5184,100C5088,100,4992,100,4896,100C4800,100,4704,100,4608,100C4512,100,4416,100,4320,100C4224,100,4128,100,4032,100C3936,100,3840,100,3744,100C3648,100,3552,100,3456,100C3360,100,3264,100,3168,100C3072,100,2976,100,2880,100C2784,100,2688,100,2592,100C2496,100,2400,100,2304,100C2208,100,2112,100,2016,100C1920,100,1824,100,1728,100C1632,100,1536,100,1440,100C1344,100,1248,100,1152,100C1056,100,960,100,864,100C768,100,672,100,576,100C480,100,384,100,288,100C192,100,96,100,48,100L0,100Z"/></svg>